
<svg xmlns="http://www.w3.org/2000/svg" xmlns:xlink="http://www.w3.org/1999/xlink" width="16px" height="14px" viewBox="0 0 16 14" version="1.1">
<g>
<path style=" stroke:none;fill-rule:nonzero;fill:rgb(0%,0%,0%);fill-opacity:1;" d="M 14.355469 4.148438 C 14.367188 4.273438 14.367188 4.398438 14.367188 4.519531 C 14.367188 8.3125 11.066406 12.6875 5.035156 12.6875 C 3.175781 12.6875 1.449219 12.214844 0 11.398438 C 0.265625 11.425781 0.519531 11.433594 0.792969 11.433594 C 2.324219 11.433594 3.738281 10.980469 4.863281 10.207031 C 3.421875 10.179688 2.214844 9.355469 1.796875 8.21875 C 2 8.246094 2.203125 8.261719 2.417969 8.261719 C 2.710938 8.261719 3.007812 8.226562 3.28125 8.164062 C 1.777344 7.898438 0.652344 6.742188 0.652344 5.371094 L 0.652344 5.335938 C 1.089844 5.550781 1.59375 5.683594 2.132812 5.703125 C 1.25 5.1875 0.671875 4.308594 0.671875 3.3125 C 0.671875 2.777344 0.835938 2.289062 1.117188 1.863281 C 2.730469 3.605469 5.160156 4.742188 7.878906 4.867188 C 7.828125 4.652344 7.800781 4.429688 7.800781 4.210938 C 7.800781 2.628906 9.261719 1.339844 11.078125 1.339844 C 12.023438 1.339844 12.875 1.6875 13.472656 2.246094 C 14.214844 2.121094 14.925781 1.882812 15.554688 1.554688 C 15.3125 2.21875 14.792969 2.78125 14.113281 3.136719 C 14.773438 3.074219 15.414062 2.914062 16 2.691406 C 15.554688 3.257812 14.996094 3.765625 14.355469 4.175781 Z M 14.355469 4.148438 "/>
</g>
</svg>
